<mxfile host="app.diagrams.net" modified="2023-10-25T09:53:32.350Z" agent="Mozilla/5.0 (Macintosh; Intel Mac OS X 10_15_7) AppleWebKit/537.36 (KHTML, like Gecko) Chrome/118.0.0.0 Safari/537.36" etag="oK1Ywl1M2f-z_zMk25Tj" version="22.0.8" type="github">
  <diagram name="第 1 页" id="pNKtV9i5idALMb_1IJTa">
    <mxGraphModel dx="1157" dy="1990" grid="1" gridSize="10" guides="1" tooltips="1" connect="1" arrows="1" fold="1" page="1" pageScale="1" pageWidth="827" pageHeight="1169" math="0" shadow="0">
      <root>
        <mxCell id="0" />
        <mxCell id="1" parent="0" />
        <mxCell id="xP7t9rCbfKgVJXpDtNM3-1" value="Spark" style="rounded=0;whiteSpace=wrap;html=1;fillColor=#f8cecc;strokeColor=#b85450;" vertex="1" parent="1">
          <mxGeometry x="240" y="210" width="120" height="60" as="geometry" />
        </mxCell>
        <mxCell id="xP7t9rCbfKgVJXpDtNM3-2" value="" style="edgeStyle=orthogonalEdgeStyle;rounded=0;orthogonalLoop=1;jettySize=auto;html=1;" edge="1" parent="1" source="xP7t9rCbfKgVJXpDtNM3-3" target="xP7t9rCbfKgVJXpDtNM3-1">
          <mxGeometry relative="1" as="geometry" />
        </mxCell>
        <mxCell id="xP7t9rCbfKgVJXpDtNM3-3" value="user table in T-1" style="shape=cylinder3;whiteSpace=wrap;html=1;boundedLbl=1;backgroundOutline=1;size=15;fillColor=#dae8fc;strokeColor=#6c8ebf;" vertex="1" parent="1">
          <mxGeometry x="24" y="200" width="90" height="80" as="geometry" />
        </mxCell>
        <mxCell id="xP7t9rCbfKgVJXpDtNM3-4" value="partition-0&lt;br&gt;(0-1000万)" style="rounded=0;whiteSpace=wrap;html=1;fillColor=#f5f5f5;fontColor=#333333;strokeColor=#66B2FF;" vertex="1" parent="1">
          <mxGeometry x="500" y="90" width="120" height="60" as="geometry" />
        </mxCell>
        <mxCell id="xP7t9rCbfKgVJXpDtNM3-5" value="partition-1&lt;br&gt;(1000万-2000万)" style="rounded=0;whiteSpace=wrap;html=1;fillColor=#f5f5f5;fontColor=#333333;strokeColor=#666666;" vertex="1" parent="1">
          <mxGeometry x="500" y="181" width="120" height="60" as="geometry" />
        </mxCell>
        <mxCell id="xP7t9rCbfKgVJXpDtNM3-6" value="partition-N" style="rounded=0;whiteSpace=wrap;html=1;fillColor=#f5f5f5;fontColor=#333333;strokeColor=#666666;" vertex="1" parent="1">
          <mxGeometry x="500" y="350" width="120" height="60" as="geometry" />
        </mxCell>
        <mxCell id="xP7t9rCbfKgVJXpDtNM3-7" value="&lt;b&gt;&lt;font style=&quot;font-size: 18px;&quot;&gt;....&lt;/font&gt;&lt;/b&gt;" style="text;html=1;strokeColor=none;fillColor=none;align=center;verticalAlign=middle;whiteSpace=wrap;rounded=0;" vertex="1" parent="1">
          <mxGeometry x="530" y="270" width="60" height="30" as="geometry" />
        </mxCell>
        <mxCell id="xP7t9rCbfKgVJXpDtNM3-8" value="" style="endArrow=classic;html=1;rounded=0;fontSize=11;entryX=0;entryY=0.5;entryDx=0;entryDy=0;exitX=1;exitY=0.5;exitDx=0;exitDy=0;" edge="1" parent="1" source="xP7t9rCbfKgVJXpDtNM3-1" target="xP7t9rCbfKgVJXpDtNM3-4">
          <mxGeometry width="50" height="50" relative="1" as="geometry">
            <mxPoint x="350" y="420" as="sourcePoint" />
            <mxPoint x="400" y="370" as="targetPoint" />
          </mxGeometry>
        </mxCell>
        <mxCell id="xP7t9rCbfKgVJXpDtNM3-9" value="@hash(uid)=0" style="edgeLabel;html=1;align=center;verticalAlign=middle;resizable=0;points=[];fontSize=11;" vertex="1" connectable="0" parent="xP7t9rCbfKgVJXpDtNM3-8">
          <mxGeometry x="-0.116" y="1" relative="1" as="geometry">
            <mxPoint as="offset" />
          </mxGeometry>
        </mxCell>
        <mxCell id="xP7t9rCbfKgVJXpDtNM3-10" value="" style="endArrow=classic;html=1;rounded=0;fontSize=11;entryX=0;entryY=0.5;entryDx=0;entryDy=0;exitX=1;exitY=0.5;exitDx=0;exitDy=0;" edge="1" parent="1" source="xP7t9rCbfKgVJXpDtNM3-1" target="xP7t9rCbfKgVJXpDtNM3-5">
          <mxGeometry width="50" height="50" relative="1" as="geometry">
            <mxPoint x="370" y="250" as="sourcePoint" />
            <mxPoint x="530" y="130" as="targetPoint" />
          </mxGeometry>
        </mxCell>
        <mxCell id="xP7t9rCbfKgVJXpDtNM3-11" value="@hash(uid)=1" style="edgeLabel;html=1;align=center;verticalAlign=middle;resizable=0;points=[];fontSize=11;" vertex="1" connectable="0" parent="xP7t9rCbfKgVJXpDtNM3-10">
          <mxGeometry x="0.1118" relative="1" as="geometry">
            <mxPoint as="offset" />
          </mxGeometry>
        </mxCell>
        <mxCell id="xP7t9rCbfKgVJXpDtNM3-12" value="" style="endArrow=classic;html=1;rounded=0;fontSize=11;entryX=0;entryY=0.5;entryDx=0;entryDy=0;exitX=1;exitY=0.5;exitDx=0;exitDy=0;" edge="1" parent="1" source="xP7t9rCbfKgVJXpDtNM3-1" target="xP7t9rCbfKgVJXpDtNM3-6">
          <mxGeometry width="50" height="50" relative="1" as="geometry">
            <mxPoint x="370" y="250" as="sourcePoint" />
            <mxPoint x="530" y="210" as="targetPoint" />
          </mxGeometry>
        </mxCell>
        <mxCell id="xP7t9rCbfKgVJXpDtNM3-13" value="@hash(uid)=n" style="edgeLabel;html=1;align=center;verticalAlign=middle;resizable=0;points=[];fontSize=11;" vertex="1" connectable="0" parent="xP7t9rCbfKgVJXpDtNM3-12">
          <mxGeometry x="0.1118" relative="1" as="geometry">
            <mxPoint as="offset" />
          </mxGeometry>
        </mxCell>
        <mxCell id="xP7t9rCbfKgVJXpDtNM3-14" value="user table in T" style="shape=cylinder3;whiteSpace=wrap;html=1;boundedLbl=1;backgroundOutline=1;size=15;fillColor=#dae8fc;strokeColor=#6c8ebf;" vertex="1" parent="1">
          <mxGeometry x="24" y="300" width="90" height="80" as="geometry" />
        </mxCell>
        <mxCell id="xP7t9rCbfKgVJXpDtNM3-15" value="" style="edgeStyle=orthogonalEdgeStyle;rounded=0;orthogonalLoop=1;jettySize=auto;html=1;entryX=0;entryY=0.5;entryDx=0;entryDy=0;" edge="1" parent="1" source="xP7t9rCbfKgVJXpDtNM3-14" target="xP7t9rCbfKgVJXpDtNM3-1">
          <mxGeometry relative="1" as="geometry">
            <mxPoint x="150" y="250" as="sourcePoint" />
            <mxPoint x="250" y="250" as="targetPoint" />
          </mxGeometry>
        </mxCell>
        <mxCell id="xP7t9rCbfKgVJXpDtNM3-16" value="join" style="edgeLabel;html=1;align=center;verticalAlign=middle;resizable=0;points=[];fontSize=11;" vertex="1" connectable="0" parent="xP7t9rCbfKgVJXpDtNM3-15">
          <mxGeometry x="0.708" relative="1" as="geometry">
            <mxPoint as="offset" />
          </mxGeometry>
        </mxCell>
        <mxCell id="xP7t9rCbfKgVJXpDtNM3-17" value="arrange N partition by id range, for example if there 10 billion id, allocate 1000 partition, each contains 10 million quota to allocate, the first is from zero to 10 million" style="text;html=1;strokeColor=none;fillColor=none;align=center;verticalAlign=middle;whiteSpace=wrap;rounded=0;fontSize=11;" vertex="1" parent="1">
          <mxGeometry x="680" y="340" width="420" height="80" as="geometry" />
        </mxCell>
        <mxCell id="xP7t9rCbfKgVJXpDtNM3-19" value="" style="endArrow=classic;html=1;rounded=0;fontSize=11;exitX=1;exitY=0;exitDx=0;exitDy=0;dashed=1;entryX=0.027;entryY=0;entryDx=0;entryDy=0;entryPerimeter=0;strokeColor=#66B2FF;" edge="1" parent="1" source="xP7t9rCbfKgVJXpDtNM3-4" target="xP7t9rCbfKgVJXpDtNM3-22">
          <mxGeometry width="50" height="50" relative="1" as="geometry">
            <mxPoint x="670" y="90" as="sourcePoint" />
            <mxPoint x="720" y="140" as="targetPoint" />
          </mxGeometry>
        </mxCell>
        <mxCell id="xP7t9rCbfKgVJXpDtNM3-20" value="" style="endArrow=classic;html=1;rounded=0;fontSize=11;exitX=1;exitY=1;exitDx=0;exitDy=0;entryX=0.008;entryY=1.025;entryDx=0;entryDy=0;entryPerimeter=0;dashed=1;strokeColor=#66B2FF;" edge="1" parent="1" source="xP7t9rCbfKgVJXpDtNM3-4" target="xP7t9rCbfKgVJXpDtNM3-38">
          <mxGeometry width="50" height="50" relative="1" as="geometry">
            <mxPoint x="660" y="330" as="sourcePoint" />
            <mxPoint x="710" y="280" as="targetPoint" />
          </mxGeometry>
        </mxCell>
        <mxCell id="xP7t9rCbfKgVJXpDtNM3-21" value="" style="shape=table;startSize=0;container=1;collapsible=0;childLayout=tableLayout;fontSize=16;strokeColor=#000000;" vertex="1" parent="1">
          <mxGeometry x="730" y="90" width="256" height="200" as="geometry" />
        </mxCell>
        <mxCell id="xP7t9rCbfKgVJXpDtNM3-22" value="" style="shape=tableRow;horizontal=0;startSize=0;swimlaneHead=0;swimlaneBody=0;strokeColor=inherit;top=0;left=0;bottom=0;right=0;collapsible=0;dropTarget=0;fillColor=none;points=[[0,0.5],[1,0.5]];portConstraint=eastwest;fontSize=16;" vertex="1" parent="xP7t9rCbfKgVJXpDtNM3-21">
          <mxGeometry width="256" height="40" as="geometry" />
        </mxCell>
        <mxCell id="xP7t9rCbfKgVJXpDtNM3-23" value="user id" style="shape=partialRectangle;html=1;whiteSpace=wrap;connectable=0;strokeColor=inherit;overflow=hidden;fillColor=none;top=0;left=0;bottom=0;right=0;pointerEvents=1;fontSize=16;" vertex="1" parent="xP7t9rCbfKgVJXpDtNM3-22">
          <mxGeometry width="86" height="40" as="geometry">
            <mxRectangle width="86" height="40" as="alternateBounds" />
          </mxGeometry>
        </mxCell>
        <mxCell id="xP7t9rCbfKgVJXpDtNM3-24" value="T - 1" style="shape=partialRectangle;html=1;whiteSpace=wrap;connectable=0;strokeColor=inherit;overflow=hidden;fillColor=none;top=0;left=0;bottom=0;right=0;pointerEvents=1;fontSize=16;" vertex="1" parent="xP7t9rCbfKgVJXpDtNM3-22">
          <mxGeometry x="86" width="86" height="40" as="geometry">
            <mxRectangle width="86" height="40" as="alternateBounds" />
          </mxGeometry>
        </mxCell>
        <mxCell id="xP7t9rCbfKgVJXpDtNM3-25" value="T" style="shape=partialRectangle;html=1;whiteSpace=wrap;connectable=0;strokeColor=inherit;overflow=hidden;fillColor=none;top=0;left=0;bottom=0;right=0;pointerEvents=1;fontSize=16;" vertex="1" parent="xP7t9rCbfKgVJXpDtNM3-22">
          <mxGeometry x="172" width="84" height="40" as="geometry">
            <mxRectangle width="84" height="40" as="alternateBounds" />
          </mxGeometry>
        </mxCell>
        <mxCell id="xP7t9rCbfKgVJXpDtNM3-26" value="" style="shape=tableRow;horizontal=0;startSize=0;swimlaneHead=0;swimlaneBody=0;strokeColor=inherit;top=0;left=0;bottom=0;right=0;collapsible=0;dropTarget=0;fillColor=none;points=[[0,0.5],[1,0.5]];portConstraint=eastwest;fontSize=16;" vertex="1" parent="xP7t9rCbfKgVJXpDtNM3-21">
          <mxGeometry y="40" width="256" height="40" as="geometry" />
        </mxCell>
        <mxCell id="xP7t9rCbfKgVJXpDtNM3-27" value="a" style="shape=partialRectangle;html=1;whiteSpace=wrap;connectable=0;strokeColor=inherit;overflow=hidden;fillColor=none;top=0;left=0;bottom=0;right=0;pointerEvents=1;fontSize=16;" vertex="1" parent="xP7t9rCbfKgVJXpDtNM3-26">
          <mxGeometry width="86" height="40" as="geometry">
            <mxRectangle width="86" height="40" as="alternateBounds" />
          </mxGeometry>
        </mxCell>
        <mxCell id="xP7t9rCbfKgVJXpDtNM3-28" value="1" style="shape=partialRectangle;html=1;whiteSpace=wrap;connectable=0;strokeColor=inherit;overflow=hidden;fillColor=none;top=0;left=0;bottom=0;right=0;pointerEvents=1;fontSize=16;" vertex="1" parent="xP7t9rCbfKgVJXpDtNM3-26">
          <mxGeometry x="86" width="86" height="40" as="geometry">
            <mxRectangle width="86" height="40" as="alternateBounds" />
          </mxGeometry>
        </mxCell>
        <mxCell id="xP7t9rCbfKgVJXpDtNM3-29" value="1" style="shape=partialRectangle;html=1;whiteSpace=wrap;connectable=0;strokeColor=inherit;overflow=hidden;fillColor=none;top=0;left=0;bottom=0;right=0;pointerEvents=1;fontSize=16;" vertex="1" parent="xP7t9rCbfKgVJXpDtNM3-26">
          <mxGeometry x="172" width="84" height="40" as="geometry">
            <mxRectangle width="84" height="40" as="alternateBounds" />
          </mxGeometry>
        </mxCell>
        <mxCell id="xP7t9rCbfKgVJXpDtNM3-30" value="" style="shape=tableRow;horizontal=0;startSize=0;swimlaneHead=0;swimlaneBody=0;strokeColor=inherit;top=0;left=0;bottom=0;right=0;collapsible=0;dropTarget=0;fillColor=none;points=[[0,0.5],[1,0.5]];portConstraint=eastwest;fontSize=16;" vertex="1" parent="xP7t9rCbfKgVJXpDtNM3-21">
          <mxGeometry y="80" width="256" height="40" as="geometry" />
        </mxCell>
        <mxCell id="xP7t9rCbfKgVJXpDtNM3-31" value="b" style="shape=partialRectangle;html=1;whiteSpace=wrap;connectable=0;strokeColor=inherit;overflow=hidden;fillColor=none;top=0;left=0;bottom=0;right=0;pointerEvents=1;fontSize=16;" vertex="1" parent="xP7t9rCbfKgVJXpDtNM3-30">
          <mxGeometry width="86" height="40" as="geometry">
            <mxRectangle width="86" height="40" as="alternateBounds" />
          </mxGeometry>
        </mxCell>
        <mxCell id="xP7t9rCbfKgVJXpDtNM3-32" value="2" style="shape=partialRectangle;html=1;whiteSpace=wrap;connectable=0;strokeColor=inherit;overflow=hidden;fillColor=none;top=0;left=0;bottom=0;right=0;pointerEvents=1;fontSize=16;" vertex="1" parent="xP7t9rCbfKgVJXpDtNM3-30">
          <mxGeometry x="86" width="86" height="40" as="geometry">
            <mxRectangle width="86" height="40" as="alternateBounds" />
          </mxGeometry>
        </mxCell>
        <mxCell id="xP7t9rCbfKgVJXpDtNM3-33" value="2" style="shape=partialRectangle;html=1;whiteSpace=wrap;connectable=0;strokeColor=inherit;overflow=hidden;fillColor=none;top=0;left=0;bottom=0;right=0;pointerEvents=1;fontSize=16;" vertex="1" parent="xP7t9rCbfKgVJXpDtNM3-30">
          <mxGeometry x="172" width="84" height="40" as="geometry">
            <mxRectangle width="84" height="40" as="alternateBounds" />
          </mxGeometry>
        </mxCell>
        <mxCell id="xP7t9rCbfKgVJXpDtNM3-34" value="" style="shape=tableRow;horizontal=0;startSize=0;swimlaneHead=0;swimlaneBody=0;strokeColor=inherit;top=0;left=0;bottom=0;right=0;collapsible=0;dropTarget=0;fillColor=none;points=[[0,0.5],[1,0.5]];portConstraint=eastwest;fontSize=16;" vertex="1" parent="xP7t9rCbfKgVJXpDtNM3-21">
          <mxGeometry y="120" width="256" height="40" as="geometry" />
        </mxCell>
        <mxCell id="xP7t9rCbfKgVJXpDtNM3-35" value="c" style="shape=partialRectangle;html=1;whiteSpace=wrap;connectable=0;strokeColor=inherit;overflow=hidden;fillColor=none;top=0;left=0;bottom=0;right=0;pointerEvents=1;fontSize=16;" vertex="1" parent="xP7t9rCbfKgVJXpDtNM3-34">
          <mxGeometry width="86" height="40" as="geometry">
            <mxRectangle width="86" height="40" as="alternateBounds" />
          </mxGeometry>
        </mxCell>
        <mxCell id="xP7t9rCbfKgVJXpDtNM3-36" value="-" style="shape=partialRectangle;html=1;whiteSpace=wrap;connectable=0;strokeColor=inherit;overflow=hidden;fillColor=none;top=0;left=0;bottom=0;right=0;pointerEvents=1;fontSize=16;" vertex="1" parent="xP7t9rCbfKgVJXpDtNM3-34">
          <mxGeometry x="86" width="86" height="40" as="geometry">
            <mxRectangle width="86" height="40" as="alternateBounds" />
          </mxGeometry>
        </mxCell>
        <mxCell id="xP7t9rCbfKgVJXpDtNM3-37" value="3" style="shape=partialRectangle;html=1;whiteSpace=wrap;connectable=0;strokeColor=inherit;overflow=hidden;fillColor=none;top=0;left=0;bottom=0;right=0;pointerEvents=1;fontSize=16;" vertex="1" parent="xP7t9rCbfKgVJXpDtNM3-34">
          <mxGeometry x="172" width="84" height="40" as="geometry">
            <mxRectangle width="84" height="40" as="alternateBounds" />
          </mxGeometry>
        </mxCell>
        <mxCell id="xP7t9rCbfKgVJXpDtNM3-38" value="" style="shape=tableRow;horizontal=0;startSize=0;swimlaneHead=0;swimlaneBody=0;strokeColor=inherit;top=0;left=0;bottom=0;right=0;collapsible=0;dropTarget=0;fillColor=none;points=[[0,0.5],[1,0.5]];portConstraint=eastwest;fontSize=16;" vertex="1" parent="xP7t9rCbfKgVJXpDtNM3-21">
          <mxGeometry y="160" width="256" height="40" as="geometry" />
        </mxCell>
        <mxCell id="xP7t9rCbfKgVJXpDtNM3-39" value="z" style="shape=partialRectangle;html=1;whiteSpace=wrap;connectable=0;strokeColor=inherit;overflow=hidden;fillColor=none;top=0;left=0;bottom=0;right=0;pointerEvents=1;fontSize=16;" vertex="1" parent="xP7t9rCbfKgVJXpDtNM3-38">
          <mxGeometry width="86" height="40" as="geometry">
            <mxRectangle width="86" height="40" as="alternateBounds" />
          </mxGeometry>
        </mxCell>
        <mxCell id="xP7t9rCbfKgVJXpDtNM3-40" value="-" style="shape=partialRectangle;html=1;whiteSpace=wrap;connectable=0;strokeColor=inherit;overflow=hidden;fillColor=none;top=0;left=0;bottom=0;right=0;pointerEvents=1;fontSize=16;" vertex="1" parent="xP7t9rCbfKgVJXpDtNM3-38">
          <mxGeometry x="86" width="86" height="40" as="geometry">
            <mxRectangle width="86" height="40" as="alternateBounds" />
          </mxGeometry>
        </mxCell>
        <mxCell id="xP7t9rCbfKgVJXpDtNM3-41" value="4" style="shape=partialRectangle;html=1;whiteSpace=wrap;connectable=0;strokeColor=inherit;overflow=hidden;fillColor=none;top=0;left=0;bottom=0;right=0;pointerEvents=1;fontSize=16;" vertex="1" parent="xP7t9rCbfKgVJXpDtNM3-38">
          <mxGeometry x="172" width="84" height="40" as="geometry">
            <mxRectangle width="84" height="40" as="alternateBounds" />
          </mxGeometry>
        </mxCell>
        <mxCell id="xP7t9rCbfKgVJXpDtNM3-43" value="" style="edgeStyle=orthogonalEdgeStyle;curved=1;rounded=0;orthogonalLoop=1;jettySize=auto;html=1;strokeColor=#000000;fontSize=11;" edge="1" parent="1" source="xP7t9rCbfKgVJXpDtNM3-45" target="xP7t9rCbfKgVJXpDtNM3-1">
          <mxGeometry relative="1" as="geometry" />
        </mxCell>
        <mxCell id="xP7t9rCbfKgVJXpDtNM3-44" value="read" style="edgeLabel;html=1;align=center;verticalAlign=middle;resizable=0;points=[];fontSize=11;" vertex="1" connectable="0" parent="xP7t9rCbfKgVJXpDtNM3-43">
          <mxGeometry x="-0.0455" relative="1" as="geometry">
            <mxPoint y="1" as="offset" />
          </mxGeometry>
        </mxCell>
        <mxCell id="xP7t9rCbfKgVJXpDtNM3-45" value="max id of each partition" style="shape=cylinder3;whiteSpace=wrap;html=1;boundedLbl=1;backgroundOutline=1;size=15;strokeColor=#000000;fontSize=11;fillColor=none;" vertex="1" parent="1">
          <mxGeometry x="270" y="20" width="60" height="80" as="geometry" />
        </mxCell>
        <mxCell id="xP7t9rCbfKgVJXpDtNM3-46" value="" style="endArrow=classic;html=1;rounded=0;strokeColor=#000000;fontSize=11;curved=1;entryX=1;entryY=0;entryDx=0;entryDy=27.5;entryPerimeter=0;exitX=1;exitY=0.5;exitDx=0;exitDy=0;" edge="1" parent="1" source="xP7t9rCbfKgVJXpDtNM3-38" target="xP7t9rCbfKgVJXpDtNM3-45">
          <mxGeometry width="50" height="50" relative="1" as="geometry">
            <mxPoint x="1090" y="210" as="sourcePoint" />
            <mxPoint x="1120" y="190" as="targetPoint" />
            <Array as="points">
              <mxPoint x="1060" y="140" />
              <mxPoint x="1090" y="20" />
              <mxPoint x="770" y="-10" />
            </Array>
          </mxGeometry>
        </mxCell>
        <mxCell id="xP7t9rCbfKgVJXpDtNM3-47" value="update max id of current partition-0" style="edgeLabel;html=1;align=center;verticalAlign=middle;resizable=0;points=[];fontSize=11;" vertex="1" connectable="0" parent="xP7t9rCbfKgVJXpDtNM3-46">
          <mxGeometry x="0.0611" y="10" relative="1" as="geometry">
            <mxPoint as="offset" />
          </mxGeometry>
        </mxCell>
      </root>
    </mxGraphModel>
  </diagram>
</mxfile>
